<?xml version="1.0" standalone="no"?>
<!DOCTYPE svg PUBLIC "-//W3C//DTD SVG 20010904//EN"
 "http://www.w3.org/TR/2001/REC-SVG-20010904/DTD/svg10.dtd">
<svg version="1.0" xmlns="http://www.w3.org/2000/svg"
 width="700.000000pt" height="700.000000pt" viewBox="0 0 700.000000 700.000000"
 preserveAspectRatio="xMidYMid meet">
<metadata>
Created by potrace 1.14, written by Peter Selinger 2001-2017
</metadata>
<g transform="translate(0.000000,700.000000) scale(0.100000,-0.100000)"
fill="#000000" stroke="none">
<path d="M3298 6436 c-1 -2 -39 -6 -83 -10 -517 -43 -1044 -264 -1495 -627
-502 -404 -859 -848 -984 -1225 -14 -44 -28 -89 -30 -100 -3 -10 -11 -53 -20
-94 -8 -41 -18 -97 -21 -125 -4 -27 -8 -57 -10 -65 -2 -8 -7 -44 -10 -80 -3
-36 -8 -78 -10 -95 -20 -170 -28 -725 -12 -895 7 -79 10 -107 21 -185 28 -199
99 -467 161 -602 8 -17 15 -34 15 -37 0 -16 112 -230 164 -313 157 -253 385
-512 665 -753 35 -30 69 -60 75 -65 33 -31 234 -180 313 -234 173 -116 383
-207 558 -241 28 -5 61 -12 75 -15 34 -7 141 -21 230 -30 30 -3 71 -8 90 -10
112 -14 268 -20 525 -20 280 0 362 4 517 26 40 5 87 11 103 14 165 21 434 102
603 181 40 19 75 34 78 34 9 0 191 105 263 153 76 50 204 145 251 187 134 117
195 176 361 349 40 42 199 232 235 281 89 120 168 262 237 420 62 143 120 317
161 485 33 134 38 161 52 250 3 22 7 42 9 45 2 3 6 37 10 75 4 39 9 79 11 90
17 89 23 482 10 635 -22 264 -86 542 -169 735 -42 97 -188 368 -207 385 -3 3
-18 25 -32 50 -27 46 -191 269 -244 330 -364 426 -820 746 -1314 925 -152 55
-370 113 -488 131 -20 3 -44 7 -52 9 -8 2 -42 7 -75 11 -33 3 -69 8 -80 11
-22 5 -451 13 -457 9z m559 -480 c136 -21 211 -49 219 -82 9 -36 -11 -69 -91
-149 -113 -113 -284 -221 -397 -250 -45 -12 -125 -12 -177 -1 -87 19 -308 156
-401 248 -141 139 -67 221 220 244 41 4 77 8 79 10 11 10 459 -6 548 -20z
m-1510 -315 c29 -11 83 -39 120 -62 76 -45 269 -179 299 -207 30 -28 191 -143
289 -207 104 -69 320 -178 384 -195 80 -21 166 3 331 93 41 22 84 45 95 51 57
31 212 139 352 244 280 211 407 287 517 307 107 20 189 -10 294 -109 60 -56
79 -91 90 -162 27 -165 -36 -506 -178 -964 -13 -45 -67 -255 -75 -295 -13 -62
-14 -184 -2 -221 16 -53 77 -110 172 -163 391 -214 753 -547 871 -802 57 -121
51 -212 -17 -299 -61 -77 -178 -127 -339 -146 -25 -2 -56 -7 -70 -11 -14 -3
-286 -8 -605 -10 -319 -3 -583 -8 -586 -11 -4 -4 -32 -88 -64 -187 -243 -769
-260 -818 -322 -940 -73 -142 -164 -222 -278 -241 -110 -19 -278 -4 -346 32
-122 63 -224 253 -343 639 -13 44 -56 181 -96 305 -40 124 -83 261 -97 305
-14 44 -28 83 -32 87 -3 3 -267 8 -586 11 -319 2 -591 7 -605 10 -14 3 -45 8
-70 12 -25 3 -52 7 -60 9 -8 1 -33 6 -55 11 -59 11 -155 57 -196 92 -68 60
-100 166 -76 253 68 253 462 638 902 881 108 60 159 111 175 177 18 79 1 212
-50 392 -11 36 -26 90 -34 120 -8 30 -24 87 -36 125 -53 174 -106 397 -125
525 -19 126 -22 158 -19 231 4 121 24 168 101 238 129 118 225 140 370 82z
m-870 -793 c42 -48 124 -265 140 -373 2 -16 8 -47 13 -68 4 -21 7 -77 5 -126
-5 -142 -67 -270 -178 -367 -60 -53 -197 -145 -280 -188 -128 -67 -150 -47
-153 143 -1 69 1 146 6 171 5 25 11 65 15 89 9 63 69 267 100 343 81 196 193
369 255 391 31 11 57 6 77 -15z m4171 -77 c69 -50 150 -159 198 -267 50 -113
107 -315 122 -434 11 -87 7 -302 -6 -326 -31 -57 -96 -33 -337 125 -248 163
-312 312 -255 596 39 191 77 274 145 317 36 22 93 18 133 -11z m-3547 -2735
c160 -10 249 -39 313 -103 63 -63 92 -134 142 -350 21 -91 27 -145 28 -236 1
-113 0 -120 -23 -138 -44 -36 -132 -20 -269 49 -230 116 -449 300 -693 582
-133 153 -123 186 59 197 53 3 98 6 99 7 4 3 260 -3 344 -8z m3240 0 c200 -10
199 -42 -8 -273 -285 -317 -618 -549 -815 -570 -44 -4 -57 -2 -78 15 -24 19
-25 26 -26 123 -1 77 5 133 27 233 60 279 102 362 215 419 45 23 63 28 134 42
14 3 77 8 140 11 63 4 116 7 117 8 3 2 200 -3 294 -8z"/>
<path d="M3369 4616 c-202 -83 -428 -236 -759 -513 -67 -55 -162 -133 -222
-182 -38 -30 -68 -55 -68 -56 0 -4 52 -152 60 -170 5 -11 30 -78 55 -150 26
-71 58 -161 72 -200 14 -38 86 -248 159 -465 l132 -395 703 0 702 0 132 395
c127 380 163 482 280 800 29 80 56 154 59 166 5 16 -10 33 -80 90 -47 38 -91
74 -97 79 -65 57 -362 296 -434 348 -165 121 -350 226 -472 268 -74 26 -131
22 -222 -15z m240 -441 c49 -27 168 -138 256 -239 125 -144 195 -305 201 -461
10 -289 -160 -499 -446 -550 -42 -8 -175 -8 -210 0 -14 3 -41 8 -60 11 -19 3
-72 24 -117 45 -278 132 -397 450 -281 749 48 125 131 223 290 343 185 139
260 160 367 102z"/>
</g>
</svg>
